<?xml version="1.0" encoding="UTF-8" standalone="no"?>
<!DOCTYPE svg PUBLIC "-//W3C//DTD SVG 1.1//EN" "http://www.w3.org/Graphics/SVG/1.1/DTD/svg11.dtd">
<svg width="100%" height="100%" viewBox="0 0 36 30" version="1.1" xmlns="http://www.w3.org/2000/svg" xmlns:xlink="http://www.w3.org/1999/xlink" xml:space="preserve" xmlns:serif="http://www.serif.com/" style="fill-rule:evenodd;clip-rule:evenodd;stroke-linejoin:round;stroke-miterlimit:2;">
    <g transform="matrix(1,0,0,1,-1544.93,-411.71)">
        <g transform="matrix(1.33793,0,0,0.941717,-488.496,-8.9483)">
            <g transform="matrix(0.73619,0,0,0.936485,1268.78,309.172)">
                <path d="M354.394,153.544L354.481,153.611L354.584,153.585C354.584,153.585 358.163,152.694 359.827,152.665C361.274,152.64 364.555,153.412 364.555,153.412L364.655,153.435L364.739,153.372C364.739,153.372 369.74,149.642 373.272,147.935C374.157,147.507 374.947,147.206 375.536,147.134C375.854,147.095 376.104,147.111 376.251,147.258C376.643,147.65 376.88,148.225 377.013,148.925C377.224,150.044 377.166,151.472 376.979,153.025C376.502,157.007 375.184,161.795 375.184,164.455C375.184,173.156 368.102,180.204 359.395,180.204C350.687,180.204 343.605,173.156 343.605,164.455C343.605,162.917 343.03,160.429 342.444,157.795C341.869,155.207 341.284,152.476 341.259,150.389C341.239,148.736 341.546,147.494 342.608,147.174C342.897,147.087 343.273,147.112 343.712,147.211C344.421,147.371 345.282,147.728 346.202,148.193C349.839,150.029 354.394,153.544 354.394,153.544Z"/>
            </g>
        </g>
        <g transform="matrix(1.33793,0,0,0.941717,-488.496,-8.9483)">
            <g transform="matrix(0.581889,0,0,0.835658,1321.76,323.11)">
                <circle cx="372.392" cy="169.82" r="2.287" style="fill:white;"/>
            </g>
        </g>
        <g transform="matrix(1.33793,0,0,0.941717,-488.496,-8.9483)">
            <g transform="matrix(0.581889,0,0,0.835658,1311.88,323.11)">
                <circle cx="372.392" cy="169.82" r="2.287" style="fill:white;"/>
            </g>
        </g>
    </g>
</svg>
