<?xml version="1.0" encoding="UTF-8" standalone="no"?>
<!DOCTYPE svg PUBLIC "-//W3C//DTD SVG 1.1//EN" "http://www.w3.org/Graphics/SVG/1.1/DTD/svg11.dtd">
<svg width="100%" height="100%" viewBox="0 0 52 47" version="1.1" xmlns="http://www.w3.org/2000/svg" xmlns:xlink="http://www.w3.org/1999/xlink" xml:space="preserve" xmlns:serif="http://www.serif.com/" style="fill-rule:evenodd;clip-rule:evenodd;stroke-linejoin:round;stroke-miterlimit:2;">
    <g transform="matrix(1,0,0,1,-1462.53,-73.6566)">
        <g transform="matrix(1.33793,0,0,0.941717,-488.496,-8.9483)">
            <g transform="matrix(1.52407,-0.155999,0.110346,2.17603,801.993,127.717)">
                <circle cx="442.444" cy="14.432" r="1.092" style="fill:rgb(248,240,148);"/>
            </g>
        </g>
        <g transform="matrix(1.33793,0,0,0.941717,-488.496,-8.9483)">
            <g transform="matrix(1.52407,-0.155999,0.110346,2.17603,819.175,139.801)">
                <circle cx="442.444" cy="14.432" r="1.092" style="fill:rgb(248,240,148);"/>
            </g>
        </g>
        <g transform="matrix(1.33793,0,0,0.941717,-488.496,-8.9483)">
            <g transform="matrix(1.52407,-0.155999,0.110346,2.17603,784.027,128.802)">
                <circle cx="442.444" cy="14.432" r="1.092" style="fill:rgb(248,240,148);"/>
            </g>
        </g>
        <g transform="matrix(1.33793,0,0,0.941717,-488.496,-8.9483)">
            <g transform="matrix(0.506938,0.176696,-0.0975217,0.583257,1417.11,-107.932)">
                <path d="M206.239,302.919C206.239,302.919 192.853,315.499 187.544,314.163C182.236,312.828 174.387,294.906 174.387,294.906C174.387,294.906 167.472,313.652 162.456,315.136C157.44,316.62 144.289,303.812 144.289,303.812C144.289,303.812 150.978,323.657 151.352,329.681C151.587,333.457 146.533,339.957 146.533,339.957C146.533,339.957 163.133,339.394 170.683,342.293C179.424,345.648 198.977,360.088 198.977,360.088C198.977,360.088 198.282,337.367 199.493,327.839C200.577,319.302 206.239,302.919 206.239,302.919Z" style="fill:rgb(248,240,148);"/>
            </g>
        </g>
        <g transform="matrix(1.33793,0,0,0.941717,-488.496,-8.9483)">
            <g transform="matrix(0.647227,-0.0662481,0.0472338,0.931456,1190.17,106.58)">
                <circle cx="437.906" cy="29.197" r="1.474" style="fill:white;"/>
            </g>
        </g>
        <g transform="matrix(1.33793,0,0,0.941717,-488.496,-8.9483)">
            <g transform="matrix(0.647227,-0.0662481,0.0472338,0.931456,1179.69,107.516)">
                <circle cx="437.906" cy="29.197" r="1.474" style="fill:white;"/>
            </g>
        </g>
        <g transform="matrix(1.33793,0,0,0.941717,-488.496,-8.9483)">
            <g transform="matrix(0.647227,-0.0662481,0.0472338,0.931456,1199.56,114.575)">
                <circle cx="437.906" cy="29.197" r="1.474" style="fill:white;"/>
            </g>
        </g>
    </g>
</svg>
